<svg id="Capa_1" enable-background="new 0 0 511.988 511.988" height="512" viewBox="0 0 511.988 511.988" width="512" xmlns="http://www.w3.org/2000/svg"><g><path d="m511.988 255.994c0 50.229-14.47 97.078-39.459 136.607l-.01-.06-55.509 30.769c-99.608 55.199-220.575 55.429-320.393.62l-57.149-31.389-.02.04c-24.988-39.529-39.448-86.368-39.448-136.587 0-46.219 12.25-89.568 33.679-126.997 44.119-77.068 127.157-128.997 222.315-128.997s178.196 51.929 222.315 128.997c21.43 37.429 33.679 80.778 33.679 126.997z" fill="#fdd400"/><path d="m511.988 255.994c0 43.009-10.61 83.538-29.349 119.117-3.14 5.97-6.52 11.81-10.11 17.49l-.01-.06-55.509 30.769c-99.608 55.199-220.575 55.429-320.393.62l-57.149-31.389-.02.04c-3.59-5.67-6.96-11.5-10.1-17.47-18.738-35.579-29.348-76.108-29.348-119.117 0-46.219 12.25-89.568 33.679-126.997 25.41 44.379 63.719 80.428 109.828 103.008 33.679 16.52 71.518 25.839 111.518 25.979.32.01.65.01.97.01s.65 0 .97-.01c39.999-.14 77.828-9.46 111.508-25.969 46.109-22.58 84.428-58.629 109.838-103.018 21.428 37.429 33.677 80.778 33.677 126.997z" fill="#faba10"/><g><path d="m256.784 511.978c-.26.01-.53.01-.79.01-44.959 0-87.218-11.59-123.937-31.959-24.46-13.55-46.459-30.989-65.169-51.489h190.096l1.46 2.6c14.14 25.26 13.51 56.179-1.66 80.838z" fill="#9dd6ed"/><path d="m445.1 428.54c-46.659 51.099-113.737 83.218-188.316 83.448v-83.448z" fill="#76caea"/></g><path d="m256.984 428.54h-190.095c-10.17-11.14-19.33-23.189-27.419-35.999h217.515l.59.6c9.799 9.86 9.539 25.87-.591 35.399z" fill="#7e7f91"/><path d="m256.984 392.546v35.995h188.116c10.167-11.137 19.332-23.191 27.423-35.995z" fill="#6e6f82"/><path d="m375.283 380.342v24.493h-43.139v-24.493h-13.559v78.157c0 3.744 3.035 6.779 6.779 6.779 3.744 0 6.779-3.035 6.779-6.779v-5.909h43.139v5.909c0 3.744 3.035 6.779 6.779 6.779 3.744 0 6.779-3.035 6.779-6.779v-78.157zm-43.139 58.689v-20.637h43.139v20.637z" fill="#fff"/><g><path d="m143.859 392.546.48-154.704.352-87.575c.015-3.743-3.006-6.79-6.749-6.806h-.001l-.001.005c-3.745-.017-6.795 3.006-6.81 6.752l-.332 82.954-.498 159.374z" fill="#384c81"/><path d="m152.542 214.803c-27.322-5.037-56.702 3.604-76.998 25.964l-33.009-.131c13.236-39.922 50.944-68.65 95.285-68.473l2.908 3.058c10.473 10.989 14.335 25.787 11.814 39.582z" fill="#e73a4a"/><path d="m232.553 241.398-33.007-.136c-16.496-18.469-39.175-27.762-61.893-27.849l.167-41.251c44.345.183 81.818 29.207 94.733 69.236z" fill="#de1364"/><path d="m137.545 241.015-62.001-.248c8.693-39.939 33.34-68.718 62.276-68.604l4.03 4.273c17.641 18.676 15.658 48.41-4.305 64.579z" fill="#fff"/><path d="m199.546 241.262-62.001-.248.275-68.852c28.94.12 53.353 29.094 61.726 69.1z" fill="#dff0f8"/><path d="m137.545 241.015-22.887-.091c3.311-39.959 12.482-68.803 23.162-68.761l.679 2.151c6.878 21.756 6.54 45.153-.954 66.701z" fill="#e73a4a"/><path d="m160.43 241.107-22.885-.092.276-68.85c10.682.043 19.62 28.956 22.609 68.942z" fill="#de1364"/></g><g><path d="m222.445 392.541h-15.88l-18.26-17.54h-105.727v17.54h-22v-24.719l-34.399-43.629c-3.77-4.77-2.95-11.69 1.83-15.45l42.89 45.185c2.693 2.837 6.434 4.444 10.346 4.444h107.24c4.358 0 8.478 1.992 11.183 5.409z" fill="#e73a4a"/><g><path d="m238.318 392.546h-15.87l-29.709-28.539h-121.157l-43.579-55.259.002-.002c4.771-3.76 11.687-2.942 15.448 1.828l33.459 42.432h120.247z" fill="#de1364"/></g></g><g><path d="m332.223 96.866h-33.588c-29.356-8.117-60.358-8.224-89.774-.298l-1.097.298h-33.588c0-.095-.012-.203-.012-.31 0-18.999 15.411-34.41 34.422-34.41 4.517 0 8.82.882 12.777 2.455 7.628-13.671 22.241-22.92 39.011-22.92 21.776 0 39.905 15.59 43.838 36.222 1.18-.167 2.372-.25 3.599-.25 11.837-.001 21.766 8.188 24.412 19.213z" fill="#fff"/><path d="m207.759 96.871c0-.06-.005-.119-.005-.179 0-10.93 8.861-19.791 19.791-19.791 2.597 0 5.074.505 7.346 1.414 4.389-7.862 12.786-13.182 22.43-13.182 12.523 0 22.947 8.969 25.212 20.832.675-.097 1.365-.15 2.067-.15 6.809 0 12.513 4.714 14.039 11.055h-90.88z" fill="#dff0f8"/></g><g><path d="m470.604 266.91h-33.588c-29.356-8.117-60.358-8.224-89.774-.298l-1.097.298h-33.588c0-.095-.012-.203-.012-.31 0-18.999 15.411-34.41 34.422-34.41 4.517 0 8.82.882 12.777 2.455 7.628-13.671 22.241-22.92 39.011-22.92 21.776 0 39.905 15.59 43.838 36.222 1.18-.167 2.372-.25 3.599-.25 11.837-.001 21.766 8.188 24.412 19.213z" fill="#fff"/><path d="m346.14 266.916c0-.06-.004-.119-.004-.178 0-10.93 8.861-19.791 19.791-19.791 2.597 0 5.074.505 7.346 1.414 4.389-7.862 12.786-13.182 22.43-13.182 12.523 0 22.947 8.969 25.212 20.832.675-.097 1.365-.15 2.067-.15 6.809 0 12.514 4.714 14.039 11.055z" fill="#dff0f8"/></g></g></svg>