<svg height="511pt" viewBox="-5 0 511 511.99992" width="511pt" xmlns="http://www.w3.org/2000/svg"><path d="m501.257812 261.535156c0 138.238282-112.097656 250.300782-250.378906 250.300782s-250.378906-112.0625-250.378906-250.300782c0-138.234375 112.097656-250.296875 250.378906-250.296875s250.378906 112.0625 250.378906 250.296875zm0 0" fill="#4f66cf"/><path d="m467.347656 242.792969c-20.414062 102.6875-79.730468 168.144531-102.195312 190.757812-17.308594 17.425781-68.816406 76.703125-110.058594 78.285157-36.277344 1.394531-61.488281-6.570313-61.488281-6.570313-110.699219-25.878906-193.105469-125.175781-193.105469-243.730469 0-32.257812 6.09375-63.082031 17.214844-91.398437 13.050781-1.589844 25.25 1.070312 52.613281-6.90625 65.226563-19.011719 90.179687-61.679688 123.320313-98.777344 18.234374-20.410156 38.945312-39.132813 70.214843-51.296875 53.394531-20.773438 129.652344-19.339844 174.542969 21.699219 59.464844 54.359375 39.3125 155.746093 28.941406 207.9375zm0 0" fill="#ade8f0"/><path d="m427.25 234.828125c-16.90625 85.066406-64.335938 142.980469-91.105469 169.929687-21.78125 21.929688-71.804687 72.292969-142.496093 90.707032-6.496094 1.691406-13.199219 3.128906-20.039063 4.234375-30.78125-9.96875-58.949219-25.738281-83.214844-46.011719-54.949219-45.914062-79.429687-238.027344-75.746093-240.011719 5.78125-3.113281 6.730468-3.136719 15.8125-3.378906 11.347656-.300781 26.886718-.714844 51.308593-7.835937 54.953125-16.015626 86.441407-45.65625 111.878907-74.871094 4.984374-5.726563 9.742187-11.4375 14.394531-17.023438 21.902343-26.3125 39.203125-47.097656 70.644531-59.328125 39.8125-15.488281 99.648438-15.921875 132.132812 13.769531 42.46875 38.828126 25.53125 124.039063 16.429688 169.820313zm0 0" fill="#2ed0e1"/><path d="m198.757812 398.414062v.042969c0 5.628907-4.566406 10.195313-10.195312 10.195313h-30.703125c-5.632813 0-10.199219-4.566406-10.199219-10.195313v-.042969c0-5.628906 4.566406-10.195312 10.199219-10.195312h30.703125c5.628906 0 10.195312 4.566406 10.195312 10.195312zm30.683594-10.195312h-.046875c-5.632812 0-10.195312 4.566406-10.195312 10.195312v.042969c0 5.628907 4.5625 10.195313 10.195312 10.195313h.046875c5.628906 0 10.195313-4.566406 10.195313-10.195313v-.042969c0-5.628906-4.566407-10.195312-10.195313-10.195312zm-81.757812-71.511719c5.632812 0 10.199218-4.566406 10.199218-10.199219v-.039062c0-5.632812-4.566406-10.195312-10.199218-10.195312h-.042969c-5.632813 0-10.199219 4.5625-10.199219 10.195312v.039062c0 5.632813 4.566406 10.199219 10.199219 10.199219zm25.546875 122.59375h-40.921875c-5.628906 0-10.195313 4.566407-10.195313 10.195313v.042968c0 5.628907 4.566407 10.195313 10.195313 10.195313h40.921875c5.632812 0 10.199219-4.566406 10.199219-10.195313v-.042968c0-5.632813-4.566407-10.195313-10.199219-10.195313zm137.964843-71.515625h-30.703124c-5.628907 0-10.195313 4.566406-10.195313 10.199219v.039063c0 5.632812 4.566406 10.195312 10.195313 10.195312h30.703124c5.632813 0 10.199219-4.5625 10.199219-10.195312v-.039063c0-5.632813-4.566406-10.199219-10.199219-10.199219zm-76.644531-112.378906h-92.019531c-5.632812 0-10.199219 4.566406-10.199219 10.195312v.042969c0 5.628907 4.566407 10.195313 10.199219 10.195313h92.019531c5.628907 0 10.195313-4.566406 10.195313-10.195313v-.042969c0-5.628906-4.566406-10.195312-10.195313-10.195312zm163.511719-112.378906h-30.703125c-5.632813 0-10.199219 4.566406-10.199219 10.195312v.042969c0 5.628906 4.566406 10.195313 10.199219 10.195313h30.703125c5.632812 0 10.199219-4.566407 10.199219-10.195313v-.042969c0-5.628906-4.566407-10.195312-10.199219-10.195312zm-20.460938-30.628906v-.039063c0-5.632813-4.566406-10.195313-10.199218-10.195313h-10.261719c-5.632813 0-10.199219 4.5625-10.199219 10.195313v.039063c0 5.632812 4.566406 10.199218 10.199219 10.199218h10.261719c5.632812 0 10.199218-4.566406 10.199218-10.199218zm-61.296874-.019532h-43.113282c-1.734375 0-2.601562-2.109375-1.359375-3.320312 10.878907-10.625 22.582031-19.753906 38.671875-26.011719 33.78125-13.140625 81.980469-15.433594 115.652344 2.3125-3.925781-7.632813-8.957031-14.515625-15.335938-20.347656-32.484374-29.695313-92.320312-29.257813-132.132812-13.773438-31.441406 12.234375-48.742188 33.015625-70.644531 59.332031-4.652344 5.585938-9.410157 11.292969-14.394531 17.019532-25.433594 29.21875-56.925782 58.859375-111.878907 74.875-24.421875 7.121094-39.960937 7.53125-51.308593 7.835937-9.082032.238281-10.027344.265625-15.8125 3.378907-3.683594 1.984374-7.335938 4.429687-10.878907 7.28125-2.152343 13.207031-3.269531 26.757812-3.269531 40.574218 0 77.195313 34.96875 146.210938 89.917969 192.121094-2.085938-2.5-4.183594-5.195312-6.28125-8.0625-12.511719-17.101562-20.875-35.800781-25.378907-55.007812-.28125-1.210938.652344-2.367188 1.894532-2.367188h35.933594c5.632812 0 10.199218-4.566406 10.199218-10.195312v-.042969c0-5.628907-4.566406-10.195313-10.199218-10.195313h-40.921876c-.144531 0-.289062.015625-.433593.023438-1.296875-16.71875.175781-33.496094 4.257812-49.644532.21875-.859374 1-1.460937 1.886719-1.460937h45.429688c5.632812 0 10.199218-4.566406 10.199218-10.195313v-.042968c0-5.628906-4.566406-10.195313-10.199218-10.195313h-37.058594c-1.390625 0-2.34375-1.429687-1.78125-2.703125 9.773437-22.167968 24.8125-42.257812 44.59375-58.164062.347656-.277344.78125-.429688 1.226562-.429688h39.007813c5.632812 0 10.199219-4.566406 10.199219-10.195312v-.042969c0-5.628906-4.566407-10.195313-10.199219-10.195313-1.964844 0-2.6875-2.597656-.992188-3.597656 26.625-15.753906 56.472657-37.742187 88.058594-68.570312 3.082031-3.007813 6.003906-6.003906 8.828125-8.964844.367188-.382812.867188-.597656 1.398438-.597656h66.222656c5.628906 0 10.195312-4.5625 10.195312-10.195313v-.039062c0-5.628907-4.566406-10.195313-10.199218-10.195313zm0 0" fill="#03bdd6"/><path d="m290.734375 163.460938c-47.972656 0-86.863281 38.878906-86.863281 86.839843 0 47.957031 38.890625 86.835938 86.863281 86.835938 47.976563 0 86.867187-38.878907 86.867187-86.835938 0-47.960937-38.890624-86.839843-86.867187-86.839843zm0 122.597656c-19.753906 0-35.765625-16.011719-35.765625-35.757813 0-19.75 16.011719-35.757812 35.765625-35.757812s35.769531 16.007812 35.769531 35.757812c0 19.746094-16.015625 35.757813-35.769531 35.757813zm0 0" fill="#fdf385"/><path d="m359.328125 303.546875c-15.890625 20.429687-40.699219 33.589844-68.59375 33.589844-47.972656 0-86.863281-38.878907-86.863281-86.835938 0-27.886719 13.160156-52.683593 33.601562-68.574219-11.441406 14.707032-18.273437 33.175782-18.273437 53.25 0 47.957032 38.890625 86.835938 86.867187 86.835938 20.078125 0 38.550782-6.828125 53.261719-18.265625zm-32.824219-53.246094c0 5.925781-1.449218 11.507813-4.003906 16.429688 11.484375-5.953125 19.332031-17.933594 19.332031-31.753907 0-19.75-16.011719-35.757812-35.765625-35.757812-13.828125 0-25.8125 7.847656-31.765625 19.324219 4.921875-2.550781 10.507813-4 16.433594-4 19.753906 0 35.769531 16.007812 35.769531 35.757812zm0 0" fill="#fdcb6b"/></svg>